<?xml version="1.0" encoding="UTF-8" standalone="no"?>
<!-- Created with Inkscape (http://www.inkscape.org/) -->

<svg
   xmlns:dc="http://purl.org/dc/elements/1.1/"
   xmlns:cc="http://creativecommons.org/ns#"
   xmlns:rdf="http://www.w3.org/1999/02/22-rdf-syntax-ns#"
   xmlns:svg="http://www.w3.org/2000/svg"
   xmlns="http://www.w3.org/2000/svg"
   xmlns:sodipodi="http://sodipodi.sourceforge.net/DTD/sodipodi-0.dtd"
   xmlns:inkscape="http://www.inkscape.org/namespaces/inkscape"
   width="47.977947"
   height="37.677673"
   viewBox="0 0 12.694165 9.9688842"
   version="1.1"
   id="svg2322"
   inkscape:version="0.92.3 (2405546, 2018-03-11)"
   sodipodi:docname="icon-chart-overview.svg">
  <defs
     id="defs2316">
    <clipPath
       clipPathUnits="userSpaceOnUse"
       id="clipPath1312">
      <path
         d="m 181.28436,172.6485 h 56.13312 v 56.13312 h -56.13312 z"
         id="path1310"
         inkscape:connector-curvature="0"
         style="clip-rule:evenodd" />
    </clipPath>
  </defs>
  <sodipodi:namedview
     id="base"
     pagecolor="#ffffff"
     bordercolor="#666666"
     borderopacity="1.0"
     inkscape:pageopacity="0.0"
     inkscape:pageshadow="2"
     inkscape:zoom="0.35"
     inkscape:cx="-23.616411"
     inkscape:cy="-226.66607"
     inkscape:document-units="mm"
     inkscape:current-layer="layer1"
     showgrid="false"
     fit-margin-top="0"
     fit-margin-left="0"
     fit-margin-right="0"
     fit-margin-bottom="0"
     units="px"
     inkscape:window-width="1920"
     inkscape:window-height="1025"
     inkscape:window-x="0"
     inkscape:window-y="0"
     inkscape:window-maximized="1" />
  <metadata
     id="metadata2319">
    <rdf:RDF>
      <cc:Work
         rdf:about="">
        <dc:format>image/svg+xml</dc:format>
        <dc:type
           rdf:resource="http://purl.org/dc/dcmitype/StillImage" />
        <dc:title></dc:title>
      </cc:Work>
    </rdf:RDF>
  </metadata>
  <g
     inkscape:label="Layer 1"
     inkscape:groupmode="layer"
     id="layer1"
     transform="translate(-40.712981,-72.883862)">
    <g
       transform="matrix(0.22614399,0,0,0.22614399,-0.28338754,32.920114)"
       id="g1306"
       style="stroke-width:0.37439266">
      <g
         id="g1308"
         clip-path="url(#clipPath1312)"
         style="stroke-width:0.37439266">
        <g
           id="g1314"
           transform="matrix(1.4033277,0,0,1.4033277,181.28436,172.6485)"
           style="stroke-width:0.37439266">
          <path
             d="m 11.4,27.9 v 4.199998 c 0,0.600003 -0.2,1.133336 -0.600001,1.599999 -0.4,0.466663 -0.9000003,0.666664 -1.4999998,0.599998 H 2.0999994 c -0.6000001,0 -1.1,-0.2 -1.49999997,-0.599998 C 0.19999948,33.299999 -5.1657361e-7,32.766666 -5.9604645e-7,32.099998 v -4.2 c 0,-0.600001 0.19999998604645,-1.133333 0.60000002604645,-1.600001 0.40000003,-0.466667 0.89999997,-0.666668 1.49999997,-0.6 h 7.1999998 c 0.5999995,0 1.0999998,0.200001 1.4999998,0.6 C 11.2,26.699997 11.4,27.233332 11.4,27.899998 Z m 0,-11.5 v 4.300001 c 0,0.6 -0.2,1.1 -0.600001,1.5 -0.4,0.399999 -0.9000003,0.633333 -1.4999998,0.700001 H 2.0999994 c -0.6000001,0 -1.1,-0.233334 -1.49999997,-0.700001 C 0.19999948,21.733334 -5.1657361e-7,21.233334 -5.9604645e-7,20.700001 v -4.3 C -5.9604645e-7,15.800002 0.19999939,15.300002 0.59999943,14.900002 0.99999946,14.500001 1.4999994,14.300001 2.0999994,14.300001 h 7.1999998 c 0.5999995,0 1.0999998,0.2 1.4999998,0.600001 0.400001,0.4 0.600001,0.9 0.600001,1.499999 z m 14.300001,11.5 v 4.199998 c 0,0.600003 -0.200001,1.133336 -0.600001,1.599999 -0.399999,0.466663 -0.899999,0.666664 -1.5,0.599998 h -7.199999 c -0.599999,0 -1.099999,-0.2 -1.499999,-0.599998 -0.400001,-0.399998 -0.600001,-0.933331 -0.600001,-1.599999 v -4.2 c 0,-0.600001 0.2,-1.133333 0.600001,-1.600001 0.4,-0.466667 0.9,-0.666668 1.499999,-0.6 h 7.200001 c 0.600001,0 1.100001,0.200001 1.5,0.6 0.4,0.4 0.600001,0.933335 0.600001,1.600001 z M 11.400001,5 V 9.3000002 C 11.400001,9.8999996 11.200001,10.4 10.8,10.8 10.4,11.200001 9.8999996,11.400001 9.3000002,11.400001 H 2.1000004 c -0.6000002,0 -1.1,-0.2 -1.50000002,-0.600001 C 0.20000044,10.4 4.3710074e-7,9.8999996 3.5762787e-7,9.3000002 V 5 C 3.5762787e-7,4.4000001 0.20000035,3.8999999 0.60000038,3.5 1.0000005,3.1000001 1.5000004,2.9000001 2.1000004,2.9000001 H 9.3000002 C 9.8999996,2.9000001 10.4,3.1000001 10.8,3.5 11.200001,3.8999999 11.400001,4.4000001 11.400001,5 Z m 14.3,11.4 v 4.300001 c 0,0.6 -0.200001,1.1 -0.600001,1.5 -0.399999,0.399999 -0.899999,0.633333 -1.5,0.700001 h -7.199999 c -0.599999,0 -1.099999,-0.233334 -1.499999,-0.700001 -0.400001,-0.466667 -0.600001,-0.966667 -0.600001,-1.5 v -4.3 c 0,-0.599999 0.2,-1.099999 0.600001,-1.499999 0.4,-0.400001 0.9,-0.600001 1.499999,-0.600001 h 7.200001 c 0.600001,0 1.100001,0.2 1.5,0.600001 0.4,0.4 0.600001,0.9 0.600001,1.499999 z M 40,27.9 v 4.199998 c 0,0.600003 -0.200001,1.133336 -0.599998,1.599999 -0.399998,0.466663 -0.899998,0.666664 -1.5,0.599998 h -7.200001 c -0.600001,0 -1.100001,-0.2 -1.5,-0.599998 C 28.800001,33.299999 28.6,32.766666 28.6,32.099998 v -4.2 c 0,-0.600001 0.200001,-1.133333 0.600001,-1.600001 0.399999,-0.466667 0.899999,-0.666668 1.5,-0.6 h 7.200001 c 0.600002,0 1.100002,0.200001 1.5,0.6 C 39.799999,26.699997 40,27.233332 40,27.899998 Z M 25.700001,5 V 9.3000002 C 25.700001,9.8999996 25.5,10.4 25.1,10.8 c -0.399999,0.400001 -0.899999,0.600001 -1.5,0.600001 h -7.199999 c -0.599999,0 -1.099999,-0.2 -1.499999,-0.600001 C 14.500001,10.4 14.300001,9.8999996 14.300001,9.3000002 V 5 c 0,-0.5999999 0.2,-1.1000001 0.600001,-1.5 0.4,-0.3999999 0.9,-0.5999999 1.499999,-0.5999999 h 7.200001 c 0.600001,0 1.100001,0.2 1.5,0.5999999 0.4,0.3999999 0.600001,0.9000001 0.600001,1.5 z M 40,16.4 v 4.300001 c 0,0.6 -0.200001,1.1 -0.599998,1.5 -0.399998,0.399999 -0.899998,0.633333 -1.5,0.700001 h -7.200001 c -0.600001,0 -1.100001,-0.233334 -1.5,-0.700001 -0.4,-0.466667 -0.600001,-0.966667 -0.600001,-1.5 v -4.3 c 0,-0.599999 0.200001,-1.099999 0.600001,-1.499999 0.399999,-0.400001 0.899999,-0.600001 1.5,-0.600001 h 7.200001 c 0.600002,0 1.100002,0.2 1.5,0.600001 0.399997,0.4 0.599998,0.9 0.599998,1.499999 z M 40,5 V 9.3000002 C 40,9.8999996 39.799999,10.4 39.400002,10.8 c -0.399998,0.400001 -0.899998,0.600001 -1.5,0.600001 h -7.200001 c -0.600001,0 -1.100001,-0.2 -1.5,-0.600001 C 28.800001,10.4 28.6,9.8999996 28.6,9.3000002 V 5 C 28.6,4.4000001 28.800001,3.8999999 29.200001,3.5 29.6,3.1000001 30.1,2.9000001 30.700001,2.9000001 h 7.200001 c 0.600002,0 1.100002,0.2 1.5,0.5999999 C 39.799999,3.8999999 40,4.4000001 40,5 Z"
             style="fill:#212529;fill-opacity:1;fill-rule:nonzero;stroke:none;stroke-width:0.37439266"
             id="path1316"
             inkscape:connector-curvature="0" />
        </g>
      </g>
    </g>
  </g>
</svg>
