<?xml version="1.0" encoding="UTF-8" standalone="no"?>
<svg
   xmlns:dc="http://purl.org/dc/elements/1.1/"
   xmlns:cc="http://creativecommons.org/ns#"
   xmlns:rdf="http://www.w3.org/1999/02/22-rdf-syntax-ns#"
   xmlns:svg="http://www.w3.org/2000/svg"
   xmlns="http://www.w3.org/2000/svg"
   id="svg4249"
   version="1.1"
   viewBox="0 0 12.694 9.9647903"
   height="9.9647903mm"
   width="12.694mm">
  <defs
     id="defs4243">
    <clipPath
       id="clipPath1396"
       clipPathUnits="userSpaceOnUse">
      <path
         style="clip-rule:evenodd"
         id="path1394"
         d="m 518.08307,172.6485 h 56.13312 v 56.13312 h -56.13312 z" />
    </clipPath>
  </defs>
  <metadata
     id="metadata4246">
    <rdf:RDF>
      <cc:Work
         rdf:about="">
        <dc:format>image/svg+xml</dc:format>
        <dc:type
           rdf:resource="http://purl.org/dc/dcmitype/StillImage" />
        <dc:title></dc:title>
      </cc:Work>
    </rdf:RDF>
  </metadata>
  <g
     transform="translate(-103.45703,-140.73394)"
     id="layer1">
    <g
       style="stroke-width:0.37439758"
       id="g1390"
       transform="matrix(0.22614105,0,0,0.22614105,-13.702817,100.77071)">
      <g
         style="stroke-width:0.37439758"
         clip-path="url(#clipPath1396)"
         id="g1392">
        <g
           style="stroke-width:0.37439758"
           transform="matrix(1.4033277,0,0,1.4033277,518.08307,172.6485)"
           id="g1398">
          <path
             id="path1400"
             style="fill:#212529;fill-opacity:1;fill-rule:nonzero;stroke:none;stroke-width:0.37439758"
             d="m 5.6999998,29.299999 v 4.299999 c 0,0.200001 -0.066667,0.366665 -0.1999998,0.5 C 5.3666668,34.233334 5.2000003,34.299999 5,34.299999 H 0.69999981 c -0.20000002,0 -0.36666668,-0.06667 -0.5,-0.200001 C 0.06666648,33.966663 -1.8378098e-7,33.799999 -1.937151e-7,33.599998 v -4.299999 c 0,-0.199999 0.0666666637151,-0.366667 0.2000000037151,-0.5 0.13333332,-0.133333 0.29999998,-0.200001 0.5,-0.200001 H 5 c 0.2000003,0 0.3666668,0.06667 0.5,0.200001 0.1333332,0.133333 0.1999998,0.300001 0.1999998,0.5 z m 0,-8.6 V 25 c 0,0.199999 -0.066667,0.366667 -0.1999998,0.5 C 5.3666668,25.633333 5.2000003,25.700001 5,25.700001 H 0.69999981 c -0.20000002,0 -0.36666668,-0.06667 -0.5,-0.200001 C 0.06666648,25.366667 -1.8378098e-7,25.199999 -1.937151e-7,25 v -4.299999 c 0,-0.199999 0.0666666637151,-0.366667 0.2000000037151,-0.5 C 0.33333313,20.066668 0.49999979,20 0.69999981,20 H 5 c 0.2000003,0 0.3666668,0.06667 0.5,0.200001 0.1333332,0.133333 0.1999998,0.300001 0.1999998,0.5 z m 0,-8.6 v 4.299999 c 0,0.199999 -0.066667,0.366666 -0.1999998,0.5 -0.1333332,0.133333 -0.2999997,0.2 -0.5,0.2 H 0.69999981 c -0.20000002,0 -0.36666668,-0.06667 -0.5,-0.2 C 0.06666648,16.766664 -1.8378098e-7,16.599997 -1.937151e-7,16.399998 v -4.3 c 0,-0.133334 0.0666666637151,-0.300001 0.2000000037151,-0.5 0.13333332,-0.2 0.29999998,-0.266667 0.5,-0.2 H 5 c 0.2000003,0 0.3666668,0.06667 0.5,0.2 0.1333332,0.133333 0.1999998,0.3 0.1999998,0.500001 z M 40,29.299999 v 4.299999 c 0,0.200001 -0.06667,0.366665 -0.200001,0.5 -0.133335,0.133336 -0.299999,0.200001 -0.5,0.200001 H 9.2999992 c -0.1999998,0 -0.3666668,-0.06667 -0.5,-0.200001 -0.1333332,-0.133335 -0.1999998,-0.299999 -0.1999998,-0.5 v -4.299999 c 0,-0.199999 0.066667,-0.366667 0.1999998,-0.5 0.1333332,-0.133333 0.3000002,-0.200001 0.5,-0.200001 H 39.299999 c 0.200001,0 0.366665,0.06667 0.5,0.200001 C 39.933334,28.933332 40,29.1 40,29.299999 Z M 5.7000008,3.5999985 v 4.3000002 c 0,0.1333332 -0.066667,0.3000002 -0.1999998,0.5 -0.1333333,0.1999998 -0.2999998,0.2666664 -0.5,0.1999998 H 0.70000076 c -0.20000004,0 -0.36666667,-0.066667 -0.5,-0.1999998 C 0.06666744,8.2666655 7.6989335e-7,8.0999985 7.5995922e-7,7.8999987 V 3.5999985 c 0,-0.2000001 0.0666666600408,-0.3666666 0.20000000004078,-0.5 0.13333333,-0.1333335 0.29999996,-0.2000001 0.5,-0.2000001 H 5.000001 c 0.2000002,0 0.3666667,0.066667 0.5,0.2000001 0.1333332,0.1333334 0.1999998,0.2999999 0.1999998,0.5 z M 40,20.699999 V 25 c 0,0.199999 -0.06667,0.366667 -0.200001,0.5 -0.133335,0.133333 -0.299999,0.200001 -0.5,0.200001 H 9.2999992 c -0.1999998,0 -0.3666668,-0.06667 -0.5,-0.200001 C 8.666666,25.366667 8.5999994,25.199999 8.5999994,25 v -4.299999 c 0,-0.199999 0.066667,-0.366667 0.1999998,-0.5 C 8.9333324,20.066668 9.0999994,20 9.2999992,20 H 39.299999 c 0.200001,0 0.366665,0.06667 0.5,0.200001 C 39.933334,20.333334 40,20.500002 40,20.700001 Z m 0,-8.6 v 4.299999 c 0,0.199999 -0.06667,0.366666 -0.200001,0.5 -0.133335,0.133333 -0.299999,0.2 -0.5,0.2 H 9.2999992 c -0.1999998,0 -0.3666668,-0.06667 -0.5,-0.2 -0.1333332,-0.133334 -0.1999998,-0.300001 -0.1999998,-0.5 v -4.3 c 0,-0.133334 0.066667,-0.300001 0.1999998,-0.5 0.1333332,-0.2 0.3000002,-0.266667 0.5,-0.2 H 39.299999 c 0.200001,0 0.366665,0.06667 0.5,0.2 0.133335,0.133333 0.200001,0.3 0.200001,0.5 z m 0,-8.5000005 v 4.3000002 c 0,0.1333332 -0.06667,0.3000002 -0.200001,0.5 -0.133335,0.1999998 -0.299999,0.2666664 -0.5,0.1999998 H 9.2999992 c -0.1999998,0 -0.3666668,-0.066667 -0.5,-0.1999998 -0.1333332,-0.1333332 -0.1999998,-0.3000002 -0.1999998,-0.5 V 3.5999985 c 0,-0.2000001 0.066667,-0.3666666 0.1999998,-0.5 0.1333332,-0.1333335 0.3000002,-0.2000001 0.5,-0.2000001 H 39.299999 c 0.200001,0 0.366665,0.066667 0.5,0.2000001 C 39.933334,3.2333319 40,3.3999984 40,3.5999985 Z" />
        </g>
      </g>
    </g>
  </g>
</svg>
