<?xml version="1.0" encoding="UTF-8" standalone="no"?>
<svg
   xmlns:dc="http://purl.org/dc/elements/1.1/"
   xmlns:cc="http://creativecommons.org/ns#"
   xmlns:rdf="http://www.w3.org/1999/02/22-rdf-syntax-ns#"
   xmlns:svg="http://www.w3.org/2000/svg"
   xmlns="http://www.w3.org/2000/svg"
   id="svg8"
   version="1.1"
   viewBox="0 0 80.759623 47.693497"
   height="47.693497mm"
   width="80.759621mm">
  <defs
     id="defs2">
    <marker
       orient="auto"
       refY="0"
       refX="0"
       id="marker2132"
       style="overflow:visible">
      <path
         id="path2130"
         style="fill:#000000;fill-opacity:1;fill-rule:evenodd;stroke:#000000;stroke-width:0.625;stroke-linejoin:round;stroke-opacity:1"
         d="M 8.7185878,4.0337352 -2.2072895,0.01601326 8.7185884,-4.0017078 c -1.7454984,2.3720609 -1.7354408,5.6174519 -6e-7,8.035443 z"
         transform="matrix(0.3,0,0,0.3,-0.69,0)" />
    </marker>
    <marker
       orient="auto"
       refY="0"
       refX="0"
       id="marker2126"
       style="overflow:visible">
      <path
         id="path2124"
         style="fill:#000000;fill-opacity:1;fill-rule:evenodd;stroke:#000000;stroke-width:0.625;stroke-linejoin:round;stroke-opacity:1"
         d="M 8.7185878,4.0337352 -2.2072895,0.01601326 8.7185884,-4.0017078 c -1.7454984,2.3720609 -1.7354408,5.6174519 -6e-7,8.035443 z"
         transform="matrix(0.3,0,0,0.3,-0.69,0)" />
    </marker>
    <marker
       style="overflow:visible"
       id="marker2122"
       refX="0"
       refY="0"
       orient="auto">
      <path
         transform="matrix(0.3,0,0,0.3,-0.69,0)"
         d="M 8.7185878,4.0337352 -2.2072895,0.01601326 8.7185884,-4.0017078 c -1.7454984,2.3720609 -1.7354408,5.6174519 -6e-7,8.035443 z"
         style="fill:#000000;fill-opacity:1;fill-rule:evenodd;stroke:#000000;stroke-width:0.625;stroke-linejoin:round;stroke-opacity:1"
         id="path2120" />
    </marker>
    <marker
       style="overflow:visible"
       id="Arrow2Sstart"
       refX="0"
       refY="0"
       orient="auto">
      <path
         transform="matrix(0.3,0,0,0.3,-0.69,0)"
         d="M 8.7185878,4.0337352 -2.2072895,0.01601326 8.7185884,-4.0017078 c -1.7454984,2.3720609 -1.7354408,5.6174519 -6e-7,8.035443 z"
         style="fill:#000000;fill-opacity:1;fill-rule:evenodd;stroke:#000000;stroke-width:0.625;stroke-linejoin:round;stroke-opacity:1"
         id="path1867" />
    </marker>
    <marker
       style="overflow:visible"
       id="EmptyTriangleInM"
       refX="0"
       refY="0"
       orient="auto">
      <path
         transform="matrix(-0.4,0,0,-0.4,1.8,0)"
         style="fill:#ffffff;fill-rule:evenodd;stroke:#000000;stroke-width:1.00000003pt;stroke-opacity:1"
         d="M 5.77,0 -2.88,5 V -5 Z"
         id="path1991" />
    </marker>
    <marker
       style="overflow:visible"
       id="DiamondL"
       refX="0"
       refY="0"
       orient="auto">
      <path
         transform="scale(0.8)"
         style="fill:#000000;fill-opacity:1;fill-rule:evenodd;stroke:#000000;stroke-width:1.00000003pt;stroke-opacity:1"
         d="M 0,-7.0710768 -7.0710894,0 0,7.0710589 7.0710462,0 Z"
         id="path1916" />
    </marker>
    <marker
       style="overflow:visible"
       id="marker2100"
       refX="0"
       refY="0"
       orient="auto">
      <path
         transform="matrix(1.1,0,0,1.1,1.1,0)"
         d="M 8.7185878,4.0337352 -2.2072895,0.01601326 8.7185884,-4.0017078 c -1.7454984,2.3720609 -1.7354408,5.6174519 -6e-7,8.035443 z"
         style="fill:#000000;fill-opacity:1;fill-rule:evenodd;stroke:#000000;stroke-width:0.625;stroke-linejoin:round;stroke-opacity:1"
         id="path1855" />
    </marker>
    <marker
       orient="auto"
       refY="0"
       refX="0"
       id="marker1833"
       style="overflow:visible">
      <path
         id="path1831"
         d="M 0,0 5,-5 -12.5,0 5,5 Z"
         style="fill:#000000;fill-opacity:1;fill-rule:evenodd;stroke:#000000;stroke-width:1.00000003pt;stroke-opacity:1"
         transform="matrix(0.2,0,0,0.2,1.2,0)" />
    </marker>
    <marker
       style="overflow:visible"
       id="Arrow1Send"
       refX="0"
       refY="0"
       orient="auto">
      <path
         transform="matrix(-0.2,0,0,-0.2,-1.2,0)"
         style="fill:#000000;fill-opacity:1;fill-rule:evenodd;stroke:#000000;stroke-width:1.00000003pt;stroke-opacity:1"
         d="M 0,0 5,-5 -12.5,0 5,5 Z"
         id="path851" />
    </marker>
    <marker
       style="overflow:visible"
       id="marker1887"
       refX="0"
       refY="0"
       orient="auto">
      <path
         transform="matrix(0.2,0,0,0.2,1.2,0)"
         style="fill:#000000;fill-opacity:1;fill-rule:evenodd;stroke:#000000;stroke-width:1.00000003pt;stroke-opacity:1"
         d="M 0,0 5,-5 -12.5,0 5,5 Z"
         id="path1885" />
    </marker>
    <marker
       style="overflow:visible"
       id="Arrow1Sstart"
       refX="0"
       refY="0"
       orient="auto">
      <path
         transform="matrix(0.2,0,0,0.2,1.2,0)"
         style="fill:#000000;fill-opacity:1;fill-rule:evenodd;stroke:#000000;stroke-width:1.00000003pt;stroke-opacity:1"
         d="M 0,0 5,-5 -12.5,0 5,5 Z"
         id="path848" />
    </marker>
    <marker
       style="overflow:visible"
       id="marker1451"
       refX="0"
       refY="0"
       orient="auto">
      <path
         transform="scale(-0.8)"
         style="fill:#000000;fill-opacity:1;fill-rule:evenodd;stroke:#000000;stroke-width:1.00000003pt;stroke-opacity:1"
         d="M 5.77,0 -2.88,5 V -5 Z"
         id="path1449" />
    </marker>
    <marker
       style="overflow:visible"
       id="Arrow2Lstart"
       refX="0"
       refY="0"
       orient="auto">
      <path
         transform="matrix(1.1,0,0,1.1,1.1,0)"
         d="M 8.7185878,4.0337352 -2.2072895,0.01601326 8.7185884,-4.0017078 c -1.7454984,2.3720609 -1.7354408,5.6174519 -6e-7,8.035443 z"
         style="fill:#000000;fill-opacity:1;fill-rule:evenodd;stroke:#000000;stroke-width:0.625;stroke-linejoin:round;stroke-opacity:1"
         id="path854" />
    </marker>
    <marker
       style="overflow:visible"
       id="TriangleInL"
       refX="0"
       refY="0"
       orient="auto">
      <path
         transform="scale(-0.8)"
         style="fill:#000000;fill-opacity:1;fill-rule:evenodd;stroke:#000000;stroke-width:1.00000003pt;stroke-opacity:1"
         d="M 5.77,0 -2.88,5 V -5 Z"
         id="path969" />
    </marker>
    <marker
       style="overflow:visible"
       id="Arrow1Lstart"
       refX="0"
       refY="0"
       orient="auto">
      <path
         transform="matrix(0.8,0,0,0.8,10,0)"
         style="fill:#000000;fill-opacity:1;fill-rule:evenodd;stroke:#000000;stroke-width:1.00000003pt;stroke-opacity:1"
         d="M 0,0 5,-5 -12.5,0 5,5 Z"
         id="path836" />
    </marker>
    <marker
       style="overflow:visible"
       id="marker1887-3"
       refX="0"
       refY="0"
       orient="auto">
      <path
         transform="matrix(0.2,0,0,0.2,1.2,0)"
         style="fill:#000000;fill-opacity:1;fill-rule:evenodd;stroke:#000000;stroke-width:1.00000003pt;stroke-opacity:1"
         d="M 0,0 5,-5 -12.5,0 5,5 Z"
         id="path1885-6" />
    </marker>
    <marker
       style="overflow:visible"
       id="marker1887-3-5"
       refX="0"
       refY="0"
       orient="auto">
      <path
         transform="matrix(0.2,0,0,0.2,1.2,0)"
         style="fill:#000000;fill-opacity:1;fill-rule:evenodd;stroke:#000000;stroke-width:1.00000003pt;stroke-opacity:1"
         d="M 0,0 5,-5 -12.5,0 5,5 Z"
         id="path1885-6-3" />
    </marker>
    <marker
       style="overflow:visible"
       id="marker1887-6"
       refX="0"
       refY="0"
       orient="auto">
      <path
         transform="matrix(0.2,0,0,0.2,1.2,0)"
         style="fill:#000000;fill-opacity:1;fill-rule:evenodd;stroke:#000000;stroke-width:1.00000003pt;stroke-opacity:1"
         d="M 0,0 5,-5 -12.5,0 5,5 Z"
         id="path1885-0" />
    </marker>
    <marker
       style="overflow:visible"
       id="marker1887-3-3"
       refX="0"
       refY="0"
       orient="auto">
      <path
         transform="matrix(0.2,0,0,0.2,1.2,0)"
         style="fill:#000000;fill-opacity:1;fill-rule:evenodd;stroke:#000000;stroke-width:1.00000003pt;stroke-opacity:1"
         d="M 0,0 5,-5 -12.5,0 5,5 Z"
         id="path1885-6-6" />
    </marker>
    <marker
       style="overflow:visible"
       id="marker1887-5"
       refX="0"
       refY="0"
       orient="auto">
      <path
         transform="matrix(0.2,0,0,0.2,1.2,0)"
         style="fill:#000000;fill-opacity:1;fill-rule:evenodd;stroke:#000000;stroke-width:1.00000003pt;stroke-opacity:1"
         d="M 0,0 5,-5 -12.5,0 5,5 Z"
         id="path1885-3" />
    </marker>
    <marker
       style="overflow:visible"
       id="marker1887-3-0-9"
       refX="0"
       refY="0"
       orient="auto">
      <path
         transform="matrix(0.2,0,0,0.2,1.2,0)"
         style="fill:#000000;fill-opacity:1;fill-rule:evenodd;stroke:#000000;stroke-width:1.00000003pt;stroke-opacity:1"
         d="M 0,0 5,-5 -12.5,0 5,5 Z"
         id="path1885-6-9-2" />
    </marker>
    <marker
       style="overflow:visible"
       id="marker1887-7"
       refX="0"
       refY="0"
       orient="auto">
      <path
         transform="matrix(0.2,0,0,0.2,1.2,0)"
         style="fill:#000000;fill-opacity:1;fill-rule:evenodd;stroke:#000000;stroke-width:1.00000003pt;stroke-opacity:1"
         d="M 0,0 5,-5 -12.5,0 5,5 Z"
         id="path1885-9" />
    </marker>
    <marker
       style="overflow:visible"
       id="marker1887-5-1"
       refX="0"
       refY="0"
       orient="auto">
      <path
         transform="matrix(0.2,0,0,0.2,1.2,0)"
         style="fill:#000000;fill-opacity:1;fill-rule:evenodd;stroke:#000000;stroke-width:1.00000003pt;stroke-opacity:1"
         d="M 0,0 5,-5 -12.5,0 5,5 Z"
         id="path1885-3-8" />
    </marker>
    <marker
       style="overflow:visible"
       id="marker1887-3-0-2"
       refX="0"
       refY="0"
       orient="auto">
      <path
         transform="matrix(0.2,0,0,0.2,1.2,0)"
         style="fill:#000000;fill-opacity:1;fill-rule:evenodd;stroke:#000000;stroke-width:1.00000003pt;stroke-opacity:1"
         d="M 0,0 5,-5 -12.5,0 5,5 Z"
         id="path1885-6-9-6" />
    </marker>
    <marker
       style="overflow:visible"
       id="marker1887-3-8"
       refX="0"
       refY="0"
       orient="auto">
      <path
         transform="matrix(0.2,0,0,0.2,1.2,0)"
         style="fill:#000000;fill-opacity:1;fill-rule:evenodd;stroke:#000000;stroke-width:1.00000003pt;stroke-opacity:1"
         d="M 0,0 5,-5 -12.5,0 5,5 Z"
         id="path1885-6-97" />
    </marker>
    <marker
       style="overflow:visible"
       id="marker1887-3-0-3"
       refX="0"
       refY="0"
       orient="auto">
      <path
         transform="matrix(0.2,0,0,0.2,1.2,0)"
         style="fill:#000000;fill-opacity:1;fill-rule:evenodd;stroke:#000000;stroke-width:1.00000003pt;stroke-opacity:1"
         d="M 0,0 5,-5 -12.5,0 5,5 Z"
         id="path1885-6-9-67" />
    </marker>
  </defs>
  <metadata
     id="metadata5">
    <rdf:RDF>
      <cc:Work
         rdf:about="">
        <dc:format>image/svg+xml</dc:format>
        <dc:type
           rdf:resource="http://purl.org/dc/dcmitype/StillImage" />
        <dc:title></dc:title>
      </cc:Work>
    </rdf:RDF>
  </metadata>
  <g
     transform="translate(-9.5971751,-17.844062)"
     id="layer1">
    <g
       style="stroke-width:2.33857417"
       id="g823"
       transform="matrix(0.15107244,0,0,-0.15063119,68.018481,31.684952)">
      <g
         style="stroke-width:2.33857417"
         id="g825"
         transform="scale(0.1)">
        <path
           d="M 901.547,500.352 500.355,901.527 c -23.093,23.11 -60.566,23.11 -83.691,0 L 333.363,818.211 439.039,712.535 c 24.559,8.293 52.723,2.727 72.293,-16.847 19.688,-19.696 25.207,-48.102 16.699,-72.75 L 629.887,521.094 c 24.648,8.496 53.066,3.004 72.754,-16.711 27.5,-27.492 27.5,-72.059 0,-99.574 -27.52,-27.516 -72.078,-27.516 -99.61,0 -20.683,20.703 -25.801,51.097 -15.312,76.582 l -95,94.992 V 326.414 c 6.699,-3.32 13.027,-7.742 18.613,-13.312 27.5,-27.497 27.5,-72.059 0,-99.598 -27.5,-27.488 -72.09,-27.488 -99.57,0 -27.5,27.539 -27.5,72.101 0,99.598 6.797,6.789 14.668,11.925 23.066,15.363 v 252.281 c -8.398,3.438 -16.25,8.531 -23.066,15.367 -20.828,20.821 -25.84,51.395 -15.157,76.977 L 292.426,777.285 17.3281,502.211 c -23.10544,-23.129 -23.10544,-60.602 0,-83.711 L 418.539,17.3242 c 23.098,-23.10545 60.559,-23.10545 83.691,0 L 901.547,416.641 c 23.117,23.113 23.117,60.605 0,83.711"
           style="fill:#100f0d;fill-opacity:1;fill-rule:nonzero;stroke:none;stroke-width:2.33857417"
           id="path827" />
      </g>
    </g>
    <path
       id="path1143"
       d="M 64.941109,24.763714 H 36.653619"
       style="fill:none;stroke:#000000;stroke-width:0.80000007;stroke-linecap:butt;stroke-linejoin:miter;stroke-miterlimit:4;stroke-dasharray:0.80000002, 1.60000005;stroke-dashoffset:0;stroke-opacity:1;marker-start:url(#Arrow2Sstart)" />
    <text
       transform="scale(1.0019437,0.99806007)"
       id="text1877"
       y="23.163273"
       x="44.967236"
       style="font-style:italic;font-variant:normal;font-weight:normal;font-stretch:normal;font-size:3.52777767px;line-height:0;font-family:'Open Sans';-inkscape-font-specification:'Open Sans Italic';letter-spacing:0px;word-spacing:0px;fill:#000000;fill-opacity:1;stroke:none;stroke-width:0.26458332"
       xml:space="preserve"><tspan
         style="font-style:italic;font-variant:normal;font-weight:normal;font-stretch:normal;font-size:3.52777767px;font-family:'Open Sans';-inkscape-font-specification:'Open Sans Italic';stroke-width:0.26458332"
         y="23.163273"
         x="44.967236"
         id="tspan1875">Commit</tspan></text>
    <text
       transform="matrix(0,1.0014637,-0.99853843,0,0,0)"
       id="text3023"
       y="-77.310951"
       x="41.071903"
       style="font-style:normal;font-variant:normal;font-weight:normal;font-stretch:normal;font-size:3.52777767px;line-height:0;font-family:'Open Sans';-inkscape-font-specification:'Open Sans';letter-spacing:0px;word-spacing:0px;fill:#000000;fill-opacity:1;stroke:none;stroke-width:0.26458329"
       xml:space="preserve"><tspan
         id="tspan1590"
         style="font-style:italic;font-variant:normal;font-weight:normal;font-stretch:normal;font-size:3.52777767px;line-height:1;font-family:'Open Sans';-inkscape-font-specification:'Open Sans Italic';text-align:center;text-anchor:middle;stroke-width:0.26458329"
         y="-77.310951"
         x="41.071903">Fetch</tspan></text>
    <g
       style="stroke-width:1.23257422"
       transform="matrix(0.81168437,0,0,0.81093615,12.691284,-33.194176)"
       id="g1576">
      <ellipse
         style="opacity:1;fill:none;fill-opacity:1;stroke:#000000;stroke-width:0.73954451;stroke-linecap:butt;stroke-linejoin:round;stroke-miterlimit:4;stroke-dasharray:none;stroke-dashoffset:0;stroke-opacity:1"
         id="path1569"
         cx="17.413713"
         cy="68.329445"
         rx="3.96875"
         ry="3.8742559" />
      <path
         style="opacity:1;fill:none;fill-opacity:1;stroke:#000000;stroke-width:0.73954463;stroke-linecap:butt;stroke-linejoin:round;stroke-miterlimit:4;stroke-dasharray:none;stroke-dashoffset:0;stroke-opacity:1"
         d="M 25.044108,78.487556 H 9.783319 c 5e-7,-3.235632 3.416244,-5.85863 7.630394,-5.85863 4.21415,0 7.630394,2.622998 7.630395,5.85863 z"
         id="path1571" />
    </g>
    <path
       id="path1143-5"
       d="M 41.297115,55.424071 H 67.665732"
       style="fill:none;stroke:#000000;stroke-width:0.79999995;stroke-linecap:butt;stroke-linejoin:miter;stroke-miterlimit:4;stroke-dasharray:0.79999995, 1.59999989;stroke-dashoffset:0;stroke-opacity:1;marker-start:url(#marker2122)" />
    <text
       transform="scale(1.0019437,0.99806007)"
       id="text1877-6"
       y="59.668751"
       x="49.938259"
       style="font-style:italic;font-variant:normal;font-weight:normal;font-stretch:normal;font-size:3.52777767px;line-height:0;font-family:'Open Sans';-inkscape-font-specification:'Open Sans Italic';letter-spacing:0px;word-spacing:0px;fill:#000000;fill-opacity:1;stroke:none;stroke-width:0.26458332"
       xml:space="preserve"><tspan
         style="font-style:italic;font-variant:normal;font-weight:normal;font-stretch:normal;font-size:3.52777767px;font-family:'Open Sans';-inkscape-font-specification:'Open Sans Italic';stroke-width:0.26458332"
         y="59.668751"
         x="49.938259"
         id="tspan1875-2">Send</tspan></text>
    <g
       style="stroke-width:2.35079813"
       transform="matrix(0.42563652,0,0,0.42513859,-2.423645,4.2305053)"
       id="g1562">
      <line
         style="fill:none;stroke:#cccccc;stroke-width:0.62198192"
         x="80"
         y="0"
         width="220"
         height="120"
         x1="36.006382"
         y1="132.67989"
         x2="94.214714"
         y2="132.67989"
         id="line1299" />
      <line
         style="fill:none;stroke:#cccccc;stroke-width:0.62198192"
         x="80"
         y="0"
         width="220"
         height="120"
         x1="41.165752"
         y1="115.12392"
         x2="41.165752"
         y2="132.70862"
         id="line1303" />
      <line
         style="fill:none;stroke:#cccccc;stroke-width:0.62198192"
         x="80"
         y="0"
         width="220"
         height="120"
         x1="58.804642"
         y1="115.12392"
         x2="58.804642"
         y2="132.70862"
         id="line1305" />
      <line
         style="fill:none;stroke:#cccccc;stroke-width:0.62198192"
         x="80"
         y="0"
         width="220"
         height="120"
         x1="76.443527"
         y1="115.12392"
         x2="76.443527"
         y2="132.70862"
         id="line1307" />
      <line
         style="fill:none;stroke:#cccccc;stroke-width:0.62198192"
         x="80"
         y="0"
         width="220"
         height="120"
         x1="94.08242"
         y1="115.12392"
         x2="94.08242"
         y2="132.70862"
         id="line1309" />
      <line
         style="fill:none;stroke:#cccccc;stroke-width:0.62198192"
         x="80"
         y="0"
         width="220"
         height="120"
         x1="36.932419"
         y1="130.03406"
         x2="94.214714"
         y2="130.03406"
         id="line1291" />
      <line
         style="fill:none;stroke:#cccccc;stroke-width:0.6229614;stroke-linecap:butt;stroke-miterlimit:4;stroke-dasharray:none"
         x="80"
         y="0"
         width="220"
         height="120"
         x1="36.932419"
         y1="116.80489"
         x2="94.214706"
         y2="116.80489"
         id="line1293" />
      <g
         style="stroke-width:2.35079813"
         class="recharts-layer recharts-cartesian-axis recharts-xAxis xAxis"
         id="g1331"
         transform="matrix(0.26458333,0,0,0.26458333,14.839713,100.92989)">
        <line
           style="fill:none;stroke:#666666;stroke-width:2.35079813"
           class="recharts-cartesian-axis-line"
           width="220"
           height="30"
           x="80"
           y="120"
           x1="80"
           y1="120"
           x2="300"
           y2="120"
           id="line1319" />
        <g
           style="stroke-width:2.35079813"
           class="recharts-cartesian-axis-ticks"
           id="g1329">
          <g
             style="stroke-width:2.35079813"
             class="recharts-layer recharts-cartesian-axis-tick"
             id="g1321" />
          <g
             style="stroke-width:2.35079813"
             class="recharts-layer recharts-cartesian-axis-tick"
             id="g1323" />
          <g
             style="stroke-width:2.35079813"
             class="recharts-layer recharts-cartesian-axis-tick"
             id="g1325" />
          <g
             style="stroke-width:2.35079813"
             class="recharts-layer recharts-cartesian-axis-tick"
             id="g1327" />
        </g>
      </g>
      <line
         id="line1333"
         y2="132.67989"
         x2="38.51992"
         y1="115.12392"
         x1="38.51992"
         y="0"
         x="20"
         height="120"
         width="60"
         class="recharts-cartesian-axis-line"
         style="fill:none;stroke:#666666;stroke-width:0.62198192" />
      <line
         id="line1335"
         y2="130.03406"
         x2="38.51992"
         y1="130.03406"
         x1="36.932419"
         y="0"
         x="20"
         height="120"
         width="60"
         class="recharts-cartesian-axis-tick-line"
         style="fill:none;stroke:#666666;stroke-width:0.62198192" />
      <text
         id="text1339"
         class="recharts-text recharts-cartesian-axis-tick-value"
         y="130.03406"
         x="36.403252"
         height="120"
         width="60"
         style="font-size:3.17499995px;text-anchor:end;fill:#666666;stroke:none;stroke-width:0.62198192">
        <tspan
           id="tspan1337"
           dy="1.1271249"
           x="36.403252"
           style="stroke-width:0.62198192">0</tspan>
      </text>
      <line
         id="line1343"
         y2="116.80489"
         x2="38.51992"
         y1="116.80489"
         x1="36.932419"
         y="0"
         x="20"
         height="120"
         width="60"
         class="recharts-cartesian-axis-tick-line"
         style="fill:none;stroke:#666666;stroke-width:0.62198192" />
      <text
         id="text1347"
         class="recharts-text recharts-cartesian-axis-tick-value"
         y="116.80489"
         x="36.403252"
         height="120"
         width="60"
         style="font-size:3.17499995px;text-anchor:end;fill:#666666;stroke:none;stroke-width:0.62198192">
        <tspan
           id="tspan1345"
           dy="1.1271249"
           x="36.403252"
           style="stroke-width:0.62198192">140</tspan>
      </text>
      <g
         style="stroke-width:2.35079813"
         class="recharts-layer recharts-line"
         id="g1365"
         transform="matrix(0.26458333,0,0,0.26458333,17.353253,118.92167)">
        <path
           style="fill:none;stroke:#e41a1c;stroke-width:2.35079813;stroke-dasharray:none"
           width="220"
           height="120"
           class="recharts-curve recharts-line-curve"
           d="M 90,21.800333 147.5753,1.7546675 188.23053,28.810453 236.27035,6.5935894 275.10025,16.550149"
           id="path1363" />
      </g>
      <g
         style="stroke-width:2.35079813"
         class="recharts-layer recharts-line"
         id="g1369"
         transform="matrix(0.26458333,0,0,0.26458333,17.353253,118.92167)">
        <path
           style="fill:none;stroke:#e41a1c;stroke-width:2.35079813;stroke-dasharray:11.75398958, 11.75398958"
           width="220"
           height="120"
           class="recharts-curve recharts-line-curve"
           d="m 90,21.800333 c 22.22222,-2.517602 35.35307,-8.570738 57.5753,-8.570738 22.22222,0 33.5853,8.484908 55.80752,8.484908 7.84642,0 31.3502,-5.172369 39.19662,-5.372645 14.37581,-0.366934 18.01108,3.607156 32.38688,2.976148"
           id="path1367" />
      </g>
    </g>
    <text
       id="text1756"
       y="63.740921"
       x="17.786579"
       style="font-style:normal;font-variant:normal;font-weight:normal;font-stretch:normal;font-size:5.62518644px;line-height:0;font-family:'Open Sans';-inkscape-font-specification:'Open Sans';letter-spacing:0px;word-spacing:0px;fill:#000000;fill-opacity:1;stroke:none;stroke-width:0.26458332"
       xml:space="preserve"><tspan
         style="font-style:normal;font-variant:normal;font-weight:normal;font-stretch:normal;font-size:3.21439219px;font-family:'Open Sans';-inkscape-font-specification:'Open Sans';stroke-width:0.26458332"
         y="63.740921"
         x="17.786579"
         id="tspan1754">Snailwatch</tspan></text>
    <path
       id="path1143-7-6"
       d="M 26.824973,33.292303 V 49.696625"
       style="fill:none;stroke:#000000;stroke-width:0.80000001;stroke-linecap:butt;stroke-linejoin:miter;stroke-miterlimit:4;stroke-dasharray:0.80000001, 1.60000002;stroke-dashoffset:0;stroke-opacity:1;marker-start:url(#marker2132)" />
    <text
       transform="matrix(0,-1.0014637,0.99853843,0,0,0)"
       id="text3023-0"
       y="25.144627"
       x="-40.930363"
       style="font-style:normal;font-variant:normal;font-weight:normal;font-stretch:normal;font-size:3.52777767px;line-height:0;font-family:'Open Sans';-inkscape-font-specification:'Open Sans';letter-spacing:0px;word-spacing:0px;fill:#000000;fill-opacity:1;stroke:none;stroke-width:0.26458329"
       xml:space="preserve"><tspan
         id="tspan1590-6"
         style="font-style:italic;font-variant:normal;font-weight:normal;font-stretch:normal;font-size:3.52777767px;line-height:1;font-family:'Open Sans';-inkscape-font-specification:'Open Sans Italic';text-align:center;text-anchor:middle;stroke-width:0.26458329"
         y="25.144627"
         x="-40.930363">Observe</tspan></text>
    <g
       style="stroke-width:1.95666325"
       id="g1588"
       transform="matrix(0.5964268,0,0,-0.43793604,20.598072,83.24972)">
      <rect
         style="fill:none;fill-opacity:1;stroke:#000000;stroke-width:1.56533051;stroke-miterlimit:4;stroke-dasharray:none;stroke-dashoffset:0;stroke-opacity:1"
         id="rect1991"
         width="16.445513"
         height="21.780439"
         x="82.922226"
         y="54.645218"
         rx="1.6734383" />
      <text
         transform="scale(0.85668807,1.167286)"
         id="text1583"
         y="59.56126"
         x="101.9138"
         style="font-style:normal;font-variant:normal;font-weight:bold;font-stretch:normal;font-size:16.74574661px;line-height:0;font-family:'Open Sans';-inkscape-font-specification:'Open Sans Bold';letter-spacing:0px;word-spacing:0px;fill:#000000;fill-opacity:1;stroke:none;stroke-width:1.17020667"
         xml:space="preserve"><tspan
           style="font-style:normal;font-variant:normal;font-weight:bold;font-stretch:normal;font-size:9.56899834px;font-family:'Open Sans';-inkscape-font-specification:'Open Sans Bold';stroke-width:1.17020667"
           y="59.56126"
           x="101.9138"
           id="tspan1581">CI</tspan></text>
    </g>
    <path
       id="path1143-7-3"
       d="m 80.809783,55.127322 c 2.667906,-0.368838 5.522975,-0.568061 7.445104,1.164371 1.817432,1.638068 2.648586,5.388209 0.081,7.529411 -2.889284,2.409479 -13.860317,1.875887 -12.042356,-4.692822"
       style="fill:none;stroke:#000000;stroke-width:0.80000007;stroke-linecap:butt;stroke-linejoin:miter;stroke-miterlimit:4;stroke-dasharray:none;stroke-opacity:1;marker-start:url(#marker1887-3-8)" />
    <text
       x="77.331329"
       y="61.790924"
       id="text1977"
       style="font-style:italic;font-variant:normal;font-weight:normal;font-stretch:normal;font-size:5.62518644px;line-height:0;font-family:'Open Sans';-inkscape-font-specification:'Open Sans Italic';text-align:start;letter-spacing:0px;word-spacing:0px;text-anchor:start;fill:#000000;fill-opacity:1;stroke:none;stroke-width:0.26458332"
       xml:space="preserve"><tspan
         id="tspan2096"
         style="font-style:italic;font-variant:normal;font-weight:normal;font-stretch:normal;font-size:2.29305553px;line-height:1;font-family:'Open Sans';-inkscape-font-specification:'Open Sans Italic';text-align:start;text-anchor:start;stroke-width:0.26458332"
         y="61.790924"
         x="77.331329">Benchmark</tspan></text>
    <path
       id="path1143-7-6-53"
       d="M 74.959354,47.421579 V 33.628801"
       style="fill:none;stroke:#000000;stroke-width:0.80000001;stroke-linecap:butt;stroke-linejoin:miter;stroke-miterlimit:4;stroke-dasharray:0.80000002, 1.60000001;stroke-dashoffset:0;stroke-opacity:1;marker-start:url(#marker2126)" />
  </g>
</svg>
